<mxfile host="app.diagrams.net" modified="2023-08-06T17:32:45.059Z" agent="Mozilla/5.0 (Windows NT 10.0; Win64; x64) AppleWebKit/537.36 (KHTML, like Gecko) Chrome/115.0.0.0 Safari/537.36" etag="DdHu7kVIc7u_pGIN9_EA" version="21.6.6" type="github">
  <diagram name="第 1 页" id="ImGkmjCMXmssgdmKCcMm">
    <mxGraphModel dx="1050" dy="542" grid="1" gridSize="10" guides="1" tooltips="1" connect="1" arrows="1" fold="1" page="1" pageScale="1" pageWidth="827" pageHeight="1169" math="0" shadow="0">
      <root>
        <mxCell id="0" />
        <mxCell id="1" parent="0" />
        <mxCell id="D2wIwuWKpKYhKre_4Qg9-7" style="edgeStyle=orthogonalEdgeStyle;rounded=0;orthogonalLoop=1;jettySize=auto;html=1;exitX=1;exitY=0.5;exitDx=0;exitDy=0;entryX=0;entryY=0.5;entryDx=0;entryDy=0;" edge="1" parent="1" source="D2wIwuWKpKYhKre_4Qg9-3" target="D2wIwuWKpKYhKre_4Qg9-5">
          <mxGeometry relative="1" as="geometry" />
        </mxCell>
        <mxCell id="D2wIwuWKpKYhKre_4Qg9-8" style="edgeStyle=orthogonalEdgeStyle;rounded=0;orthogonalLoop=1;jettySize=auto;html=1;exitX=1;exitY=0.5;exitDx=0;exitDy=0;entryX=0;entryY=0.5;entryDx=0;entryDy=0;" edge="1" parent="1" source="D2wIwuWKpKYhKre_4Qg9-3" target="D2wIwuWKpKYhKre_4Qg9-6">
          <mxGeometry relative="1" as="geometry" />
        </mxCell>
        <mxCell id="D2wIwuWKpKYhKre_4Qg9-3" value="首页" style="rounded=1;whiteSpace=wrap;html=1;" vertex="1" parent="1">
          <mxGeometry x="190" y="50" width="120" height="60" as="geometry" />
        </mxCell>
        <mxCell id="D2wIwuWKpKYhKre_4Qg9-5" value="欢迎页" style="rounded=1;whiteSpace=wrap;html=1;" vertex="1" parent="1">
          <mxGeometry x="390" y="10" width="120" height="60" as="geometry" />
        </mxCell>
        <mxCell id="D2wIwuWKpKYhKre_4Qg9-6" value="分析页" style="rounded=1;whiteSpace=wrap;html=1;" vertex="1" parent="1">
          <mxGeometry x="390" y="110" width="120" height="60" as="geometry" />
        </mxCell>
        <mxCell id="D2wIwuWKpKYhKre_4Qg9-9" value="博客管理" style="rounded=1;whiteSpace=wrap;html=1;" vertex="1" parent="1">
          <mxGeometry x="190" y="220" width="120" height="60" as="geometry" />
        </mxCell>
      </root>
    </mxGraphModel>
  </diagram>
</mxfile>
